<?xml version="1.0" encoding="UTF-8"?>
<svg width="20px" height="20px" viewBox="0 0 20 20" version="1.1" xmlns="http://www.w3.org/2000/svg" xmlns:xlink="http://www.w3.org/1999/xlink">
    <!-- Generator: Sketch 48.1 (47250) - http://www.bohemiancoding.com/sketch -->
    <title>facebook</title>
    <desc>Created with Sketch.</desc>
    <defs>
        <polygon id="path-1" points="0 19.9810842 0 0.0129377017 19.2 0.0129377017 19.2 19.9810842"></polygon>
    </defs>
    <g id="Desktop-HD" stroke="none" stroke-width="1" fill="none" fill-rule="evenodd" transform="translate(-1248.000000, -2147.000000)">
        <g id="FOOTER" transform="translate(96.000000, 2147.000000)">
            <g id="social" transform="translate(1152.000000, 0.000000)">
                <g id="facebook">
                    <g>
                        <mask id="mask-2" fill="white">
                            <use xlink:href="#path-1"></use>
                        </mask>
                        <g id="Clip-2"></g>
                        <path d="M16.6126957,0.0129377017 L2.58725736,0.0129377017 C1.15838301,0.0129377017 0,1.21760719 0,2.70368536 L0,17.2902389 C0,18.7763171 1.15833604,19.9809865 2.58725736,19.9809865 L9.50453661,19.9809865 L9.5163257,12.8454862 L7.73382585,12.8454862 C7.50217743,12.8454862 7.3141627,12.6506836 7.3132703,12.4097692 L7.30472204,10.1097014 C7.30382964,9.86746822 7.49240799,9.67061403 7.72532456,9.67061403 L9.50458358,9.67061403 L9.50458358,7.44816442 C9.50458358,4.8690326 11.0191754,3.46467578 13.2314366,3.46467578 L15.0467674,3.46467578 C15.2790264,3.46467578 15.4673699,3.66050418 15.4673699,3.9021024 L15.4673699,5.84153137 C15.4673699,6.0830319 15.2791673,6.27881145 15.0470022,6.27895799 L13.9329574,6.27949531 C12.7298604,6.27949531 12.4968969,6.87406335 12.4968969,7.74662077 L12.4968969,9.67066287 L15.1405164,9.67066287 C15.3924082,9.67066287 15.587844,9.89941428 15.5581599,10.1595744 L15.296029,12.4596422 C15.2709478,12.6797477 15.0914813,12.8455839 14.8783855,12.8455839 L12.508686,12.8455839 L12.4968969,19.9810842 L16.6127896,19.9810842 C18.041664,19.9810842 19.2,18.7764148 19.2,17.2903854 L19.2,2.70368536 C19.199953,1.21760719 18.041617,0.0129377017 16.6126957,0.0129377017" id="Fill-1" fill="#9B9B9B" mask="url(#mask-2)"></path>
                    </g>
                </g>
            </g>
        </g>
    </g>
</svg>