<?xml version="1.0" encoding="UTF-8"?>
<svg width="20px" height="20px" viewBox="0 0 20 20" version="1.1" xmlns="http://www.w3.org/2000/svg" xmlns:xlink="http://www.w3.org/1999/xlink">
    <!-- Generator: Sketch 48.1 (47250) - http://www.bohemiancoding.com/sketch -->
    <title>instagram</title>
    <desc>Created with Sketch.</desc>
    <defs>
        <path d="M13.6121246,19.9658296 C16.6889134,19.879846 19.1664,17.2500773 19.1664,14.0298351 L19.1664,5.97310887 C19.1663652,2.69879096 16.6049739,0.034944 13.4566261,0.034944 L5.70977391,0.034944 C2.5613913,0.034944 0,2.69879096 0,5.97310887 L0,14.0298351 C0,17.2500773 2.47748659,19.879846 5.55427544,19.9658296 L13.6121246,19.9658296 Z M17.2382609,14.0298351 C17.2382609,16.2018977 15.5451478,17.9627353 13.4566261,17.9627353 L5.70977391,17.9627353 C3.62125217,17.9627353 1.92813913,16.2018977 1.92813913,14.0298351 L1.92813913,5.97310887 C1.92813913,3.80101009 3.62125217,2.0402087 5.70977391,2.0402087 L13.4566261,2.0402087 C15.5451478,2.0402087 17.2382609,3.80101009 17.2382609,5.97310887 L17.2382609,14.0298351 Z" id="path-1"></path>
    </defs>
    <g id="Desktop-HD" stroke="none" stroke-width="1" fill="none" fill-rule="evenodd" transform="translate(-1286.000000, -1584.000000)">
        <g id="social" transform="translate(1248.000000, 1584.000000)">
            <g id="instagram" transform="translate(38.000000, 0.000000)">
                <g>
                    <g id="Group-3">
                        <mask id="mask-2" fill="white">
                            <use xlink:href="#path-1"></use>
                        </mask>
                        <g id="Clip-2"></g>
                        <polygon id="Fill-1" fill="#FFFFFF" mask="url(#mask-2)" points="0 19.9658296 19.1664 19.9658296 19.1664 0.034944 0 0.034944"></polygon>
                    </g>
                    <path d="M9.5832,13.1516049 C7.91033043,13.1516049 6.55422609,11.7412563 6.55422609,10.001472 C6.55422609,8.26168765 7.91036522,6.85133913 9.5832,6.85133913 C11.2560696,6.85133913 12.6121739,8.26168765 12.6121739,10.001472 C12.6121739,11.7412202 11.2560348,13.1516049 9.5832,13.1516049 Z M9.5832,4.84607443 C6.84984348,4.84607443 4.62608696,7.15878122 4.62608696,10.0014358 C4.62608696,12.8440904 6.84984348,15.1568334 9.5832,15.1568334 C12.3165565,15.1568334 14.540313,12.8441266 14.540313,10.0014358 C14.540313,7.15874504 12.3165565,4.84607443 9.5832,4.84607443 Z" id="Fill-4" fill="#FFFFFF"></path>
                    <path d="M14.549913,3.64944139 C15.2059478,3.64944139 15.7377391,4.20250435 15.7377391,4.88478052 C15.7377391,5.5670567 15.2059478,6.12011965 14.549913,6.12011965 C13.8938783,6.12011965 13.362087,5.5670567 13.362087,4.88478052 C13.362087,4.20250435 13.8938783,3.64944139 14.549913,3.64944139" id="Fill-6" fill="#FFFFFF"></path>
                </g>
            </g>
        </g>
    </g>
</svg>