<?xml version="1.0" encoding="UTF-8"?>
<svg width="20px" height="17px" viewBox="0 0 20 17" version="1.1" xmlns="http://www.w3.org/2000/svg" xmlns:xlink="http://www.w3.org/1999/xlink">
    <!-- Generator: Sketch 48.1 (47250) - http://www.bohemiancoding.com/sketch -->
    <title>twitter</title>
    <desc>Created with Sketch.</desc>
    <defs>
        <polygon id="path-1" points="0.00280291971 16.612793 0.00280291971 0.0401789197 19.1605255 0.0401789197 19.1605255 16.612793"></polygon>
    </defs>
    <g id="Desktop-HD" stroke="none" stroke-width="1" fill="none" fill-rule="evenodd" transform="translate(-1325.000000, -2149.000000)">
        <g id="FOOTER" transform="translate(96.000000, 2147.000000)">
            <g id="social" transform="translate(1152.000000, 0.000000)">
                <g id="twitter" transform="translate(77.000000, 0.000000)">
                    <g transform="translate(0.000000, 1.996800)">
                        <mask id="mask-2" fill="white">
                            <use xlink:href="#path-1"></use>
                        </mask>
                        <g id="Clip-2"></g>
                        <path d="M18.8558015,1.96842698 C18.4300847,2.16475469 17.9881577,2.31964029 17.534692,2.43177203 C18.0343591,1.93796485 18.4100438,1.3203172 18.6219912,0.630911066 C18.6824876,0.434097518 18.4769401,0.263907971 18.3060555,0.36928654 C17.6752117,0.758443912 16.9956905,1.05038482 16.2863182,1.23709291 C16.245162,1.24792712 16.2026978,1.25341711 16.1600934,1.25341711 C16.0308788,1.25341711 15.9052613,1.2035214 15.8064584,1.11296093 C15.0517255,0.42117419 14.0810277,0.0401789197 13.073238,0.0401789197 C12.6371504,0.0401789197 12.1968584,0.110868555 11.7645547,0.250304467 C10.4251328,0.68236146 9.39164964,1.83142026 9.06739854,3.24909968 C8.94575182,3.78085092 8.91281752,4.313088 8.9694365,4.83099282 C8.97592993,4.89050815 8.94888175,4.93204742 8.93220438,4.95152958 C8.90291387,4.98568409 8.86138394,5.00526342 8.81826569,5.00526342 C8.81345401,5.00526342 8.80850219,5.0050205 8.80359708,5.00453466 C5.87164964,4.72124169 3.22774891,3.25220905 1.35890219,0.868097869 C1.26360292,0.746492263 1.08085255,0.761407533 1.00489343,0.896908146 C0.638925547,1.54987632 0.445524088,2.29670867 0.445524088,3.05665869 C0.445524088,4.22131293 0.895439416,5.31887276 1.67694015,6.11900169 C1.34829781,6.03796368 1.03021314,5.91033366 0.734738686,5.73965828 C0.591789781,5.65706558 0.415906569,5.76322149 0.41389781,5.93326528 C0.393436496,7.66343661 1.36745109,9.20296455 2.82655766,9.89620882 C2.79717372,9.89693758 2.76778978,9.89727766 2.73835912,9.89727766 C2.50707153,9.89727766 2.27288759,9.87405454 2.04239416,9.82823988 C1.88141314,9.79627165 1.74617226,9.95509255 1.79615766,10.1174115 C2.26975766,11.6551418 3.5428438,12.7886052 5.06632409,13.0459543 C3.80192701,13.928676 2.32950657,14.3943045 0.797010219,14.3943045 L0.319252555,14.394013 C0.172052555,14.394013 0.0475562044,14.4938044 0.0100437956,14.6420826 C-0.0269080292,14.7881259 0.0411562044,14.9421856 0.166680292,15.0181223 C1.89355912,16.0633086 3.86331095,16.615708 5.86384818,16.615708 C7.61497226,16.615708 9.25299854,16.2542921 10.732473,15.5415657 C12.0887591,14.8881602 13.2872876,13.954134 14.2947504,12.7654307 C15.2332613,11.6581055 15.9671591,10.3798134 16.4759825,8.96611784 C16.9610277,7.61854505 17.2174015,6.18065472 17.2174015,4.80786686 L17.2174015,4.74247288 C17.2173547,4.52204753 17.3132146,4.31464269 17.4804555,4.17345775 C18.1150832,3.63757688 18.6677255,3.00676298 19.1229664,2.29855486 C19.243165,2.11155527 19.0535942,1.87718634 18.8558015,1.96842698" id="Fill-1" fill="#FFD54F" mask="url(#mask-2)"></path>
                    </g>
                </g>
            </g>
        </g>
    </g>
</svg>